<svg width="16" height="16" viewBox="0 0 16 16" fill="currentColor" xmlns="http://www.w3.org/2000/svg">
<path d="M12.5304 7.55042L4.48036 1.26292C4.45932 1.24636 4.43404 1.23607 4.40742 1.23323C4.3808 1.23038 4.35392 1.23511 4.32987 1.24686C4.30581 1.25861 4.28556 1.2769 4.27143 1.29964C4.2573 1.32238 4.24987 1.34865 4.25 1.37542V2.75578C4.25 2.84328 4.29107 2.9272 4.35893 2.98078L10.7875 8.00042L4.35893 13.0201C4.28929 13.0736 4.25 13.1576 4.25 13.2451V14.6254C4.25 14.7451 4.3875 14.8111 4.48036 14.7379L12.5304 8.45042C12.5988 8.39705 12.6541 8.32878 12.6922 8.2508C12.7303 8.17282 12.7501 8.08719 12.7501 8.00042C12.7501 7.91364 12.7303 7.82801 12.6922 7.75004C12.6541 7.67206 12.5988 7.60379 12.5304 7.55042Z" fill="currentColor" fill-opacity="0.85"/>
</svg>
