<svg width="24" height="24" viewBox="0 0 24 24" fill="none" xmlns="http://www.w3.org/2000/svg">
<path fill-rule="evenodd" clip-rule="evenodd" d="M12 2.75C12.5523 2.75 13 3.19772 13 3.75V20.25C13 20.8023 12.5523 21.25 12 21.25C11.4477 21.25 11 20.8023 11 20.25V3.75C11 3.19772 11.4477 2.75 12 2.75Z" fill="currentColor"/>
<path fill-rule="evenodd" clip-rule="evenodd" d="M11.2929 3.04289C11.6834 2.65237 12.3166 2.65237 12.7071 3.04289L19.4571 9.79289C19.8476 10.1834 19.8476 10.8166 19.4571 11.2071C19.0666 11.5976 18.4334 11.5976 18.0429 11.2071L12 5.16421L5.95711 11.2071C5.56658 11.5976 4.93342 11.5976 4.54289 11.2071C4.15237 10.8166 4.15237 10.1834 4.54289 9.79289L11.2929 3.04289Z" fill="currentColor"/>
</svg>
