<svg width="24" height="24" viewBox="0 0 24 24" fill="none" xmlns="http://www.w3.org/2000/svg">
<path fill-rule="evenodd" clip-rule="evenodd" d="M21.25 12C21.25 12.5523 20.8023 13 20.25 13L3.75 13C3.19772 13 2.75 12.5523 2.75 12C2.75 11.4477 3.19772 11 3.75 11L20.25 11C20.8023 11 21.25 11.4477 21.25 12Z" fill="currentColor"/>
<path fill-rule="evenodd" clip-rule="evenodd" d="M20.9571 11.2929C21.3476 11.6834 21.3476 12.3166 20.9571 12.7071L14.2071 19.4571C13.8166 19.8476 13.1834 19.8476 12.7929 19.4571C12.4024 19.0666 12.4024 18.4334 12.7929 18.0429L18.8358 12L12.7929 5.95711C12.4024 5.56658 12.4024 4.93342 12.7929 4.54289C13.1834 4.15237 13.8166 4.15237 14.2071 4.54289L20.9571 11.2929Z" fill="currentColor"/>
</svg>
