<svg width="24" height="24" viewBox="0 0 24 24" fill="none" xmlns="http://www.w3.org/2000/svg">
<path fill-rule="evenodd" clip-rule="evenodd" d="M12 18.2497C11.4477 18.2497 11 17.8019 11 17.2497L11 2.99966C11 2.44738 11.4477 1.99966 12 1.99966C12.5523 1.99966 13 2.44738 13 2.99966L13 17.2497C13 17.8019 12.5523 18.2497 12 18.2497Z" fill="currentColor"/>
<path fill-rule="evenodd" clip-rule="evenodd" d="M19.4571 10.4568C19.0666 10.8473 18.4334 10.8473 18.0429 10.4568L12 4.41391L5.95711 10.4568C5.56658 10.8473 4.93342 10.8473 4.54289 10.4568C4.15237 10.0663 4.15237 9.43311 4.54289 9.04259L11.2929 2.29259C11.6834 1.90206 12.3166 1.90206 12.7071 2.29259L19.4571 9.04259C19.8476 9.43311 19.8476 10.0663 19.4571 10.4568Z" fill="currentColor"/>
<path fill-rule="evenodd" clip-rule="evenodd" d="M2.75 20.2497C2.75 19.6974 3.19772 19.2497 3.75 19.2497H20.25C20.8023 19.2497 21.25 19.6974 21.25 20.2497C21.25 20.8019 20.8023 21.2497 20.25 21.2497H3.75C3.19772 21.2497 2.75 20.8019 2.75 20.2497Z" fill="currentColor"/>
</svg>
