<svg width="24" height="24" viewBox="0 0 24 24" fill="none" xmlns="http://www.w3.org/2000/svg">
<path fill-rule="evenodd" clip-rule="evenodd" d="M12 4.75C7.99594 4.75 4.75 7.99594 4.75 12C4.75 16.0041 7.99594 19.25 12 19.25C16.0041 19.25 19.25 16.0041 19.25 12C19.25 7.99594 16.0041 4.75 12 4.75ZM2.75 12C2.75 6.89137 6.89137 2.75 12 2.75C17.1086 2.75 21.25 6.89137 21.25 12C21.25 17.1086 17.1086 21.25 12 21.25C6.89137 21.25 2.75 17.1086 2.75 12Z" fill="currentColor"/>
<path fill-rule="evenodd" clip-rule="evenodd" d="M12 0.875C12.5523 0.875 13 1.32272 13 1.875V5.625C13 6.17728 12.5523 6.625 12 6.625C11.4477 6.625 11 6.17728 11 5.625V1.875C11 1.32272 11.4477 0.875 12 0.875Z" fill="currentColor"/>
<path fill-rule="evenodd" clip-rule="evenodd" d="M0.875 12C0.875 11.4477 1.32272 11 1.875 11H5.625C6.17728 11 6.625 11.4477 6.625 12C6.625 12.5523 6.17728 13 5.625 13H1.875C1.32272 13 0.875 12.5523 0.875 12Z" fill="currentColor"/>
<path fill-rule="evenodd" clip-rule="evenodd" d="M12 17.375C12.5523 17.375 13 17.8227 13 18.375V22.125C13 22.6773 12.5523 23.125 12 23.125C11.4477 23.125 11 22.6773 11 22.125V18.375C11 17.8227 11.4477 17.375 12 17.375Z" fill="currentColor"/>
<path fill-rule="evenodd" clip-rule="evenodd" d="M17.375 12C17.375 11.4477 17.8227 11 18.375 11H22.125C22.6773 11 23.125 11.4477 23.125 12C23.125 12.5523 22.6773 13 22.125 13H18.375C17.8227 13 17.375 12.5523 17.375 12Z" fill="currentColor"/>
<path fill-rule="evenodd" clip-rule="evenodd" d="M12 10C10.8954 10 10 10.8954 10 12C10 13.1046 10.8954 14 12 14C13.1046 14 14 13.1046 14 12C14 10.8954 13.1046 10 12 10ZM8 12C8 9.79086 9.79086 8 12 8C14.2091 8 16 9.79086 16 12C16 14.2091 14.2091 16 12 16C9.79086 16 8 14.2091 8 12Z" fill="currentColor"/>
</svg>
