<svg width="24" height="24" viewBox="0 0 24 24" fill="none"   xmlns="http://www.w3.org/2000/svg">
<rect width="24" height="24" fill="none"/>
<path d="M12 12C16.5563 12 20.25 9.98528 20.25 7.5C20.25 5.01472 16.5563 3 12 3C7.44365 3 3.75 5.01472 3.75 7.5C3.75 9.98528 7.44365 12 12 12Z" stroke="currentColor" stroke-width="1.5" stroke-linecap="round" stroke-linejoin="round"/>
<path d="M3.75 7.5V12C3.75 14.4853 7.44365 16.5 12 16.5C16.5563 16.5 20.25 14.4853 20.25 12V7.5" stroke="currentColor" stroke-width="1.5" stroke-linecap="round" stroke-linejoin="round"/>
<path d="M3.75 12V16.5C3.75 18.9853 7.44365 21 12 21C16.5563 21 20.25 18.9853 20.25 16.5V12" stroke="currentColor" stroke-width="1.5" stroke-linecap="round" stroke-linejoin="round"/>
</svg>
