<svg width="15" height="14" viewBox="0 0 15 14" fill="none" xmlns="http://www.w3.org/2000/svg">
<path d="M3.02717 12C3.05842 12 3.08967 11.9969 3.12092 11.9922L5.74905 11.5312C5.7803 11.525 5.80999 11.5109 5.83186 11.4875L12.4553 4.86406C12.4698 4.84961 12.4813 4.83244 12.4891 4.81354C12.497 4.79463 12.501 4.77437 12.501 4.75391C12.501 4.73344 12.497 4.71318 12.4891 4.69428C12.4813 4.67538 12.4698 4.65821 12.4553 4.64375L9.85842 2.04531C9.82874 2.01563 9.78967 2 9.74749 2C9.7053 2 9.66624 2.01563 9.63655 2.04531L3.01311 8.66875C2.98967 8.69219 2.97561 8.72031 2.96936 8.75156L2.50842 11.3797C2.49322 11.4634 2.49865 11.5495 2.52425 11.6307C2.54984 11.7118 2.59482 11.7855 2.6553 11.8453C2.75842 11.9453 2.88811 12 3.02717 12ZM4.0803 9.275L9.74749 3.60938L10.8928 4.75469L5.22561 10.4203L3.83655 10.6656L4.0803 9.275Z" fill="black" fill-opacity="0.85"/>
<path fill-rule="evenodd" clip-rule="evenodd" d="M2.9999 2.15137L12.8484 11.9999L11.9999 12.8484L2.15137 2.9999L2.9999 2.15137Z" fill="black" fill-opacity="0.85"/>
</svg>
