<svg width="14" height="14" viewBox="0 0 14 14" fill="none" xmlns="http://www.w3.org/2000/svg">
<g clip-path="url(#clip0_5968_114661)">
<path d="M3.02632 10.7485C3.05757 10.7485 3.08882 10.7454 3.12007 10.7407L5.74819 10.2798C5.77944 10.2735 5.80913 10.2595 5.83101 10.236L12.4544 3.6126C12.4689 3.59814 12.4804 3.58097 12.4883 3.56207C12.4961 3.54317 12.5001 3.52291 12.5001 3.50244C12.5001 3.48198 12.4961 3.46171 12.4883 3.44281C12.4804 3.42391 12.4689 3.40674 12.4544 3.39229L9.85757 0.793848C9.82788 0.76416 9.78882 0.748535 9.74663 0.748535C9.70444 0.748535 9.66538 0.76416 9.63569 0.793848L3.01226 7.41729C2.98882 7.44072 2.97476 7.46885 2.96851 7.5001L2.50757 10.1282C2.49237 10.2119 2.4978 10.2981 2.52339 10.3792C2.54898 10.4603 2.59397 10.534 2.65444 10.5938C2.75757 10.6938 2.88726 10.7485 3.02632 10.7485V10.7485ZM4.07944 8.02354L9.74663 2.35791L10.8919 3.50322L5.22476 9.16885L3.83569 9.41416L4.07944 8.02354V8.02354ZM12.7498 12.061H1.24976C0.973193 12.061 0.749756 12.2845 0.749756 12.561V13.1235C0.749756 13.1923 0.806006 13.2485 0.874756 13.2485H13.1248C13.1935 13.2485 13.2498 13.1923 13.2498 13.1235V12.561C13.2498 12.2845 13.0263 12.061 12.7498 12.061Z" fill="black" fill-opacity="0.85"/>
</g>
<defs>
<clipPath id="clip0_5968_114661">
<rect width="14" height="14" fill="white"/>
</clipPath>
</defs>
</svg>
