<svg width="24" height="24" viewBox="0 0 24 24" fill="none" xmlns="http://www.w3.org/2000/svg">
<path d="M8.58289 9.33252L14.9468 15.6965" stroke="white" stroke-width="1.5" stroke-linecap="round" stroke-linejoin="round"/>
<path d="M20.2501 20.2346H6.75658L3.27955 16.7576C3.14026 16.6183 3.02977 16.4529 2.95439 16.271C2.87901 16.089 2.84021 15.8939 2.84021 15.6969C2.84021 15.5 2.87901 15.3049 2.95439 15.1229C3.02977 14.9409 3.14026 14.7756 3.27955 14.6363L13.8862 4.02967C14.1675 3.74837 14.549 3.59033 14.9468 3.59033C15.3446 3.59033 15.7262 3.74837 16.0075 4.02967L20.2501 8.27231C20.3894 8.4116 20.4999 8.57696 20.5753 8.75895C20.6507 8.94094 20.6895 9.13599 20.6895 9.33297C20.6895 9.52996 20.6507 9.72501 20.5753 9.907C20.4999 10.089 20.3894 10.2543 20.2501 10.3936L10.4091 20.2346" stroke="white" stroke-width="1.5" stroke-linecap="round" stroke-linejoin="round"/>
</svg>
