<svg width="24" height="24" viewBox="0 0 24 24" fill="none" xmlns="http://www.w3.org/2000/svg">
<path d="M9.00001 16.4993H2.8125C2.66332 16.4993 2.52024 16.44 2.41475 16.3345C2.30926 16.229 2.25 16.086 2.25 15.9368V9.74925C2.25 7.95904 2.96116 6.24216 4.22703 4.97629C5.49289 3.71042 7.20978 2.99927 8.99999 2.99927H9C10.7902 2.99927 12.5071 3.71043 13.773 4.9763C15.0388 6.24217 15.75 7.95906 15.75 9.74927V9.74928C15.75 11.5395 15.0388 13.2564 13.773 14.5222C12.5071 15.7881 10.7902 16.4993 9.00001 16.4993V16.4993Z" stroke="currentColor" stroke-width="1.5" stroke-linecap="round" stroke-linejoin="round"/>
<path d="M8.63422 16.4995C9.10001 17.8156 9.96224 18.9549 11.1022 19.7607C12.2422 20.5666 13.604 20.9992 15 20.9993H21.1875C21.3367 20.9993 21.4798 20.94 21.5853 20.8345C21.6908 20.729 21.75 20.5859 21.75 20.4368V14.2492C21.75 12.5229 21.0885 10.8621 19.9016 9.60846C18.7148 8.35481 17.0926 7.60355 15.3689 7.50916" stroke="currentColor" stroke-width="1.5" stroke-linecap="round" stroke-linejoin="round"/>
</svg>
