<svg width="25" height="25" viewBox="0 0 25 25" fill="none" xmlns="http://www.w3.org/2000/svg">
<path d="M7.25 21.5H5.74927C5.55036 21.5 5.35959 21.421 5.21894 21.2803C5.07828 21.1397 4.99927 20.9489 4.99927 20.75V17.75" stroke="currentColor" stroke-width="1.5" stroke-linecap="round" stroke-linejoin="round"/>
<path d="M11.75 3.5H14.75L20 8.75V13.25" stroke="currentColor" stroke-width="1.5" stroke-linecap="round" stroke-linejoin="round"/>
<path d="M4.99927 6.5V4.25C4.99927 4.05109 5.07828 3.86032 5.21894 3.71967C5.35959 3.57902 5.55036 3.5 5.74927 3.5H8" stroke="currentColor" stroke-width="1.5" stroke-linecap="round" stroke-linejoin="round"/>
<path d="M14.75 3.5V8.75H20.0007" stroke="currentColor" stroke-width="1.5" stroke-linecap="round" stroke-linejoin="round"/>
<path d="M20 17V20.75C20 20.9489 19.921 21.1397 19.7803 21.2803C19.6397 21.421 19.4489 21.5 19.25 21.5H18.5" stroke="currentColor" stroke-width="1.5" stroke-linecap="round" stroke-linejoin="round"/>
<path d="M5 10.25V14" stroke="currentColor" stroke-width="1.5" stroke-linecap="round" stroke-linejoin="round"/>
<path d="M11 21.5H14.75" stroke="currentColor" stroke-width="1.5" stroke-linecap="round" stroke-linejoin="round"/>
</svg>
