<svg width="20" height="21" viewBox="0 0 20 21" fill="none" xmlns="http://www.w3.org/2000/svg">
<path d="M17.5 7.375V16.1944C17.5 16.3418 17.4415 16.4831 17.3373 16.5873C17.2331 16.6915 17.0918 16.75 16.9444 16.75H3.125C2.95924 16.75 2.80027 16.6842 2.68306 16.5669C2.56585 16.4497 2.5 16.2908 2.5 16.125V5.5C2.5 5.33424 2.56585 5.17527 2.68306 5.05806C2.80027 4.94085 2.95924 4.875 3.125 4.875H7.29167C7.4269 4.875 7.55848 4.91886 7.66667 5L9.83333 6.625C9.94152 6.70614 10.0731 6.75 10.2083 6.75H16.875C17.0408 6.75 17.1997 6.81585 17.3169 6.93306C17.4342 7.05027 17.5 7.20924 17.5 7.375Z" stroke="currentColor" stroke-width="1.5" stroke-linecap="round" stroke-linejoin="round"/>
</svg>
