<svg width="20" height="21" viewBox="0 0 20 21" fill="none" xmlns="http://www.w3.org/2000/svg">
<path d="M2.5 16.75V5.5C2.5 5.33424 2.56585 5.17527 2.68306 5.05806C2.80027 4.94085 2.95924 4.875 3.125 4.875H7.29167C7.4269 4.875 7.55848 4.91886 7.66667 5L9.83333 6.625C9.94152 6.70614 10.0731 6.75 10.2083 6.75H15.625C15.7908 6.75 15.9497 6.81585 16.0669 6.93306C16.1842 7.05027 16.25 7.20924 16.25 7.375V9.25" stroke="currentColor" stroke-width="1.5" stroke-linecap="round" stroke-linejoin="round"/>
<path d="M2.5 16.75L4.84285 10.8929C4.88924 10.7769 4.96932 10.6775 5.07275 10.6075C5.17619 10.5374 5.29823 10.5 5.42315 10.5H9.18576C9.30916 10.5 9.42979 10.4635 9.53245 10.395L11.0925 9.35497C11.1952 9.28652 11.3158 9.25 11.4392 9.25H17.8829C17.9819 9.25 18.0795 9.27353 18.1677 9.31866C18.2558 9.36379 18.332 9.42922 18.3899 9.50956C18.4478 9.5899 18.4858 9.68284 18.5007 9.78074C18.5156 9.87864 18.5071 9.97869 18.4758 10.0726L16.25 16.75H2.5Z" stroke="currentColor" stroke-width="1.5" stroke-linecap="round" stroke-linejoin="round"/>
</svg>
