<svg width="24" height="24" viewBox="0 0 24 24" fill="none" xmlns="http://www.w3.org/2000/svg">
<path d="M3.94543 4.5H20.0546C20.1999 4.5 20.3421 4.54221 20.4638 4.62149C20.5856 4.70077 20.6817 4.81371 20.7405 4.94658C20.7993 5.07946 20.8182 5.22655 20.7949 5.36998C20.7717 5.51341 20.7073 5.64699 20.6096 5.7545L14.4451 12.5355C14.3196 12.6735 14.25 12.8534 14.25 13.04V18.3486C14.25 18.4721 14.2195 18.5936 14.1613 18.7025C14.103 18.8114 14.0188 18.9042 13.916 18.9726L10.916 20.9727C10.8031 21.048 10.6718 21.0912 10.5362 21.0977C10.4006 21.1043 10.2658 21.0739 10.1461 21.0099C10.0264 20.9458 9.92638 20.8505 9.85662 20.734C9.78687 20.6176 9.75002 20.4844 9.75002 20.3486V13.04C9.75002 12.8534 9.68048 12.6735 9.55498 12.5355L3.39048 5.7545C3.29274 5.64699 3.22834 5.51341 3.20509 5.36998C3.18185 5.22655 3.20077 5.07946 3.25955 4.94658C3.31833 4.81371 3.41444 4.70077 3.5362 4.62149C3.65797 4.54221 3.80014 4.5 3.94543 4.5V4.5Z" stroke="currentColor" stroke-width="1.5" stroke-linecap="round" stroke-linejoin="round"/>
</svg>
