<svg width="14" height="14" viewBox="0 0 14 14" fill="none" xmlns="http://www.w3.org/2000/svg">
<g clip-path="url(#clip0_6499_137883)">
<g clip-path="url(#clip1_6499_137883)">
<path d="M13.4502 8.77885L12.4268 7.90385C12.4752 7.60697 12.5002 7.30384 12.5002 7.00072C12.5002 6.6976 12.4752 6.39447 12.4268 6.0976L13.4502 5.2226C13.5274 5.15651 13.5826 5.06849 13.6086 4.97025C13.6346 4.872 13.63 4.76818 13.5955 4.6726L13.5814 4.63197C13.2997 3.84451 12.8778 3.11453 12.3361 2.47728L12.308 2.44447C12.2423 2.36721 12.1547 2.31167 12.0568 2.28517C11.9589 2.25867 11.8553 2.26246 11.7596 2.29603L10.4893 2.7476C10.0205 2.36322 9.49707 2.0601 8.93145 1.8476L8.68614 0.51947C8.66763 0.419536 8.61915 0.327599 8.54715 0.255873C8.47514 0.184147 8.38302 0.136028 8.28301 0.117908L8.24082 0.110095C7.42676 -0.0367798 6.57051 -0.0367798 5.75645 0.110095L5.71426 0.117908C5.61426 0.136028 5.52213 0.184147 5.45013 0.255873C5.37812 0.327599 5.32964 0.419536 5.31114 0.51947L5.06426 1.85385C4.50315 2.06639 3.98062 2.36935 3.51739 2.75072L2.2377 2.29603C2.14202 2.26219 2.03831 2.25827 1.94035 2.28478C1.84239 2.3113 1.75481 2.36699 1.68926 2.44447L1.66114 2.47728C1.12011 3.11498 0.698286 3.84484 0.415823 4.63197L0.401761 4.6726C0.331448 4.86791 0.389261 5.08666 0.547073 5.2226L1.58301 6.10697C1.53457 6.40072 1.51114 6.70072 1.51114 6.99916C1.51114 7.29916 1.53457 7.59916 1.58301 7.89135L0.547073 8.77572C0.469879 8.8418 0.41463 8.92982 0.388673 9.02807C0.362716 9.12631 0.367281 9.23013 0.401761 9.32572L0.415823 9.36635C0.698636 10.1538 1.11739 10.8804 1.66114 11.521L1.68926 11.5538C1.75497 11.6311 1.84255 11.6866 1.94045 11.7131C2.03836 11.7396 2.14199 11.7359 2.2377 11.7023L3.51739 11.2476C3.98301 11.6304 4.50332 11.9335 5.06426 12.1445L5.31114 13.4788C5.32964 13.5788 5.37812 13.6707 5.45013 13.7424C5.52213 13.8142 5.61426 13.8623 5.71426 13.8804L5.75645 13.8882C6.57799 14.0359 7.41928 14.0359 8.24082 13.8882L8.28301 13.8804C8.38302 13.8623 8.47514 13.8142 8.54715 13.7424C8.61915 13.6707 8.66763 13.5788 8.68614 13.4788L8.93145 12.1507C9.49684 11.9388 10.0232 11.6347 10.4893 11.2507L11.7596 11.7023C11.8553 11.7361 11.959 11.74 12.0569 11.7135C12.1549 11.687 12.2425 11.6313 12.308 11.5538L12.3361 11.521C12.8799 10.8788 13.2986 10.1538 13.5814 9.36635L13.5955 9.32572C13.6658 9.13353 13.608 8.91478 13.4502 8.77885ZM11.3174 6.28197C11.3564 6.51791 11.3768 6.7601 11.3768 7.00228C11.3768 7.24447 11.3564 7.48666 11.3174 7.72259L11.2143 8.34916L12.3814 9.3476C12.2045 9.75523 11.9812 10.1411 11.7158 10.4976L10.2658 9.98353L9.7752 10.3867C9.40176 10.6929 8.98614 10.9335 8.53614 11.1023L7.94082 11.3257L7.66114 12.8413C7.21984 12.8913 6.77431 12.8913 6.33301 12.8413L6.05332 11.3226L5.4627 11.096C5.01739 10.9273 4.60332 10.6867 4.23301 10.382L3.74239 9.97728L2.28301 10.496C2.01739 10.1382 1.79551 9.75228 1.61739 9.34603L2.79707 8.33822L2.69551 7.71322C2.65801 7.48041 2.6377 7.23978 2.6377 7.00228C2.6377 6.76322 2.65645 6.52416 2.69551 6.29135L2.79707 5.66635L1.61739 4.65853C1.79395 4.25072 2.01739 3.86634 2.28301 3.50853L3.74239 4.02728L4.23301 3.6226C4.60332 3.31791 5.01739 3.07728 5.4627 2.90853L6.05489 2.6851L6.33457 1.16635C6.77364 1.11635 7.22207 1.11635 7.6627 1.16635L7.94239 2.68197L8.5377 2.90541C8.98614 3.07416 9.40332 3.31478 9.77676 3.62103L10.2674 4.02416L11.7174 3.5101C11.983 3.86791 12.2049 4.25385 12.383 4.6601L11.2158 5.65853L11.3174 6.28197ZM7.0002 4.09603C5.48145 4.09603 4.2502 5.32728 4.2502 6.84603C4.2502 8.36478 5.48145 9.59603 7.0002 9.59603C8.51895 9.59603 9.7502 8.36478 9.7502 6.84603C9.7502 5.32728 8.51895 4.09603 7.0002 4.09603ZM8.2377 8.08353C8.07539 8.24631 7.8825 8.37539 7.67012 8.46334C7.45774 8.5513 7.23007 8.59639 7.0002 8.59603C6.53301 8.59603 6.09395 8.41322 5.7627 8.08353C5.59992 7.92122 5.47084 7.72833 5.38289 7.51595C5.29494 7.30358 5.24984 7.0759 5.2502 6.84603C5.2502 6.37885 5.43301 5.93978 5.7627 5.60853C6.09395 5.27728 6.53301 5.09603 7.0002 5.09603C7.46739 5.09603 7.90645 5.27728 8.2377 5.60853C8.40047 5.77084 8.52955 5.96373 8.61751 6.17611C8.70546 6.38849 8.75056 6.61616 8.7502 6.84603C8.7502 7.31322 8.56739 7.75228 8.2377 8.08353Z" fill="currentColor" fill-opacity="0.85"/>
</g>
</g>
<defs>
<clipPath id="clip0_6499_137883">
<rect width="14" height="14" fill="white"/>
</clipPath>
<clipPath id="clip1_6499_137883">
<rect width="14" height="14" fill="white"/>
</clipPath>
</defs>
</svg>
