<svg width="24" height="24" viewBox="0 0 24 24" fill="none" xmlns="http://www.w3.org/2000/svg">
<path d="M12 21C16.9706 21 21 16.9706 21 12C21 7.02944 16.9706 3 12 3C7.02944 3 3 7.02944 3 12C3 16.9706 7.02944 21 12 21Z" stroke="currentColor" stroke-width="1.5" stroke-linecap="round" stroke-linejoin="round"/>
<path d="M12 18C12.6213 18 13.125 17.4963 13.125 16.875C13.125 16.2537 12.6213 15.75 12 15.75C11.3787 15.75 10.875 16.2537 10.875 16.875C10.875 17.4963 11.3787 18 12 18Z" fill="currentColor"/>
<path d="M12 13.5004V12.7504C12.5192 12.7504 13.0267 12.5965 13.4584 12.308C13.8901 12.0196 14.2265 11.6096 14.4252 11.13C14.6239 10.6503 14.6758 10.1225 14.5746 9.61332C14.4733 9.10412 14.2233 8.63639 13.8562 8.26927C13.489 7.90216 13.0213 7.65215 12.5121 7.55087C12.0029 7.44958 11.4751 7.50156 10.9955 7.70024C10.5158 7.89892 10.1058 8.23538 9.81739 8.66706C9.52895 9.09874 9.375 9.60625 9.375 10.1254" stroke="currentColor" stroke-width="1.5" stroke-linecap="round" stroke-linejoin="round"/>
</svg>
