<svg width="65" height="95" viewBox="0 0 65 95" fill="none" xmlns="http://www.w3.org/2000/svg">
<path d="M33.313 2.3573V41.2531H63.4683C63.4683 11.0794 50.7102 5.89328 33.313 2.3573Z" fill="#00BEBE"/>
<path fill-rule="evenodd" clip-rule="evenodd" d="M32.4809 0.00300995C32.6368 0.00100673 32.7931 0 32.9501 0C43.4994 0 51.3175 4.54675 56.4784 10.302C61.5911 16.0034 64.163 22.9691 64.163 27.9743V67.0257C64.163 71.6186 61.3752 78.5803 56.2096 84.3547C50.9874 90.1925 43.1776 95 32.9501 95C22.756 95 14.7304 90.4505 9.27374 84.7327C3.87046 79.0709 0.836914 72.0979 0.836914 67.0257V27.9743C0.836914 22.9666 3.62484 16.0617 8.87468 10.4054C14.1744 4.69534 22.0886 0.136588 32.4809 0.00300995ZM34.0077 3.0813V39.2071H61.1475V27.9743C61.1475 23.8615 58.9486 17.6062 54.2496 12.3661C49.771 7.3719 43.0821 3.37084 34.0077 3.0813ZM61.1475 42.2716H3.85244V67.0257C3.85244 71.0715 6.39988 77.3195 11.4384 82.5992C16.4236 87.8229 23.7007 91.9355 32.9501 91.9355C42.166 91.9355 49.2087 87.6251 53.9783 82.2933C58.8044 76.8983 61.1475 70.639 61.1475 67.0257V42.2716ZM3.85244 39.2071H30.9922V3.12237C22.2697 3.64242 15.6172 7.60709 11.0684 12.5081C6.20776 17.7451 3.85244 23.932 3.85244 27.9743V39.2071Z" fill="#444444"/>
<path d="M27.8594 27.6883V17.81C27.8594 16.0139 29.5284 13.3198 32.4995 13.3198C35.4706 13.3198 37.1379 16.0139 37.1379 17.81V27.6883C37.1379 29.4843 36.2117 32.1784 32.4995 32.1784C28.7874 32.1784 27.8611 29.4843 27.8594 27.6883Z" fill="#444444"/>
<path fill-rule="evenodd" clip-rule="evenodd" d="M27.9428 13.87C28.9765 12.693 30.5288 11.7865 32.5019 11.7865C34.4752 11.7865 36.0271 12.6931 37.0605 13.8704C38.061 15.0103 38.6481 16.4858 38.6481 17.8089V27.6872C38.6481 28.8134 38.3636 30.3067 37.3979 31.5535C36.3813 32.866 34.7602 33.7096 32.5019 33.7096C30.2436 33.7096 28.6226 32.866 27.6058 31.5537C26.64 30.3071 26.3551 28.8142 26.354 27.6887L26.354 17.8089C26.354 16.4853 26.9418 15.0098 27.9428 13.87ZM30.1926 15.9106C29.6162 16.5669 29.3695 17.3364 29.3695 17.8089V27.6864C29.3703 28.3568 29.5495 29.1086 29.9751 29.6579C30.3499 30.1416 31.0481 30.6451 32.5019 30.6451C33.9558 30.6451 34.6539 30.1416 35.0284 29.658C35.4539 29.1088 35.6325 28.357 35.6325 27.6872V17.8089C35.6325 17.336 35.3859 16.5663 34.8101 15.9102C34.267 15.2915 33.4998 14.851 32.5019 14.851C31.5039 14.851 30.7362 15.2916 30.1926 15.9106Z" fill="#444444"/>
</svg>
