<svg width="46" height="54" viewBox="0 0 46 54" fill="none" xmlns="http://www.w3.org/2000/svg">
<path d="M23 9.42857C30.5274 9.42857 36.6296 15.5687 36.6296 23.1429V40.2857C36.6296 47.8599 30.5274 54 23 54C15.4726 54 9.37037 47.8599 9.37037 40.2857V23.1429C9.37037 15.5687 15.4726 9.42857 23 9.42857ZM23 11.1429V18.6502C20.4909 18.6502 18.4568 20.6969 18.4568 23.2217V31.7143H11.0741V40.2857C11.0741 46.9131 16.4135 52.2857 23 52.2857C29.4975 52.2857 34.7814 47.0574 34.923 40.5537L34.9259 40.2857V23.1429C34.9259 16.5154 29.5865 11.1429 23 11.1429ZM23 20.5714C24.4114 20.5714 25.5556 21.7227 25.5556 23.1429V28.2857C25.5556 29.7059 24.4114 30.8571 23 30.8571C21.5886 30.8571 20.4444 29.7059 20.4444 28.2857V23.1429C20.4444 21.7227 21.5886 20.5714 23 20.5714ZM42.2628 22.4655L42.3431 22.5368L45.7505 25.9653C45.7747 25.9897 45.7975 26.0156 45.8187 26.0428L45.7505 25.9653C45.7807 25.9957 45.8081 26.0277 45.8328 26.0612C45.848 26.0819 45.8622 26.1032 45.8756 26.1251C45.8819 26.1355 45.888 26.1459 45.8938 26.1565C45.9031 26.1735 45.9119 26.191 45.9202 26.2088C45.927 26.2233 45.9334 26.2382 45.9393 26.2531C45.9461 26.2701 45.9522 26.287 45.9578 26.3042C45.9619 26.317 45.9658 26.3302 45.9695 26.3434C45.9746 26.3619 45.979 26.3805 45.9828 26.3993C45.9858 26.4142 45.9884 26.4292 45.9906 26.4442C45.9932 26.4613 45.9953 26.479 45.9968 26.4968C45.9982 26.5129 45.9991 26.5283 45.9996 26.5438C45.9998 26.5524 46 26.5619 46 26.5714L45.9995 26.5999C45.999 26.6148 45.9982 26.6296 45.9969 26.6445L46 26.5714C46 26.6148 45.9968 26.6575 45.9906 26.6991C45.9884 26.7137 45.9858 26.7286 45.9828 26.7435C45.979 26.7624 45.9746 26.7809 45.9696 26.7993C45.9658 26.8127 45.9619 26.8259 45.9576 26.839C45.9522 26.8558 45.9461 26.8728 45.9394 26.8895C45.9334 26.9047 45.927 26.9195 45.9202 26.9342C45.9119 26.9519 45.9031 26.9694 45.8936 26.9865C45.888 26.9969 45.8819 27.0074 45.8756 27.0178C45.8622 27.0397 45.848 27.061 45.8328 27.0816C45.829 27.0867 45.8252 27.0918 45.8214 27.0968C45.8168 27.1026 45.8148 27.1051 45.8129 27.1075L45.7505 27.1775L42.3431 30.6061C42.0104 30.9408 41.4711 30.9408 41.1384 30.6061C40.8313 30.2971 40.8077 29.8109 41.0675 29.4747L41.1384 29.3939L43.0909 27.4286H40.037C39.5666 27.4286 39.1852 27.0448 39.1852 26.5714C39.1852 26.1319 39.514 25.7696 39.9377 25.7201L40.037 25.7143H43.0909L41.1384 23.7489C40.8313 23.44 40.8077 22.9538 41.0675 22.6175L41.1384 22.5368C41.4455 22.2278 41.9287 22.204 42.2628 22.4655ZM3.73716 22.4655C4.07133 22.204 4.55453 22.2278 4.86161 22.5368L4.93247 22.6175C5.19231 22.9538 5.16869 23.44 4.86161 23.7489L2.90822 25.7143H5.96296L6.06231 25.7201C6.48597 25.7696 6.81482 26.1319 6.81482 26.5714C6.81482 27.0448 6.43343 27.4286 5.96296 27.4286H2.90822L4.86161 29.3939L4.93247 29.4747C5.19231 29.8109 5.16869 30.2971 4.86161 30.6061C4.52894 30.9408 3.98958 30.9408 3.65691 30.6061L0.249502 27.1775L0.187142 27.1075C0.185169 27.1051 0.183209 27.1026 0.181262 27.1001C0.174778 27.0918 0.170982 27.0868 0.167248 27.0817C0.152047 27.061 0.13776 27.0397 0.124428 27.0177C0.118073 27.0074 0.112018 26.9969 0.106201 26.9863C0.0969356 26.9694 0.0880616 26.9519 0.0797792 26.9341C0.0729859 26.9195 0.0666118 26.9047 0.0606736 26.8897C0.0539357 26.8728 0.0478081 26.8558 0.0422065 26.8386C0.0381023 26.8259 0.0341573 26.8127 0.0305348 26.7994C0.0254139 26.7809 0.0209895 26.7624 0.0171778 26.7435C0.0142278 26.7286 0.0116091 26.7137 0.00938553 26.6987C0.00320398 26.6575 0 26.6148 0 26.5714L0.00308028 26.6445C0.00149268 26.6257 0.000518825 26.6069 0.000158619 26.588L0 26.5714C0 26.5659 5.12689e-05 26.5605 0.00015344 26.555C0.000510485 26.5354 0.00158925 26.5151 0.00337883 26.4949C0.00491191 26.4773 0.00691043 26.4604 0.00938685 26.4437C0.0116091 26.4292 0.0142278 26.4142 0.0172415 26.3994C0.0209895 26.3805 0.0254138 26.3619 0.030429 26.3436C0.0341573 26.3302 0.0381022 26.317 0.0423695 26.3039C0.047808 26.287 0.0539356 26.2701 0.06057 26.2534C0.0666117 26.2382 0.0729859 26.2233 0.0797958 26.2087C0.0880616 26.191 0.0969356 26.1735 0.106376 26.1563C0.112018 26.1459 0.118073 26.1355 0.124367 26.1251C0.13776 26.1032 0.152047 26.0819 0.16723 26.0613C0.191933 26.0277 0.219351 25.9957 0.249502 25.9653L0.181262 26.0428C0.202459 26.0156 0.225253 25.9897 0.249502 25.9653L3.65691 22.5368L3.73716 22.4655ZM23 22.2857C22.5631 22.2857 22.2031 22.6166 22.1539 23.0429L22.1481 23.1429V28.2857C22.1481 28.7591 22.5295 29.1429 23 29.1429C23.4369 29.1429 23.7969 28.812 23.8461 28.3857L23.8519 28.2857V23.1429C23.8519 22.6695 23.4705 22.2857 23 22.2857ZM23 0L23.0165 0.000159604C23.0364 0.000544238 23.0562 0.0016243 23.076 0.00339981L23 0C23.0431 0 23.0855 0.00322389 23.1269 0.00944516C23.1414 0.0116812 23.1562 0.0143161 23.171 0.0173486C23.1897 0.0211198 23.2082 0.0255717 23.2265 0.030618C23.2398 0.0343695 23.2529 0.0383389 23.2659 0.0426326C23.2826 0.048105 23.2995 0.0542706 23.3161 0.0609462C23.3312 0.0670255 23.3459 0.0734392 23.3605 0.0802914C23.3781 0.0886085 23.3955 0.0975377 23.4125 0.107036C23.4229 0.112713 23.4333 0.118806 23.4436 0.125139C23.4653 0.138616 23.4865 0.152992 23.507 0.168269C23.5121 0.172044 23.5171 0.175864 23.5221 0.179747C23.5279 0.184347 23.5303 0.186319 23.5328 0.188305L23.6024 0.251051L27.0098 3.67962C27.3424 4.01436 27.3424 4.55707 27.0098 4.89181C26.7027 5.20079 26.2195 5.22456 25.8853 4.96311L25.8051 4.89181L23.8519 2.92714V6C23.8519 6.47339 23.4705 6.85714 23 6.85714C22.5631 6.85714 22.2031 6.52625 22.1539 6.09996L22.1481 6V2.92714L20.1949 4.89181C19.8879 5.20079 19.4047 5.22456 19.0705 4.96311L18.9902 4.89181C18.6832 4.58282 18.6595 4.09662 18.9194 3.76037L18.9902 3.67962L22.3976 0.251051L22.4672 0.188305C22.4697 0.186319 22.4721 0.184347 22.4746 0.182388L22.3976 0.251051C22.4278 0.220714 22.4597 0.193125 22.4929 0.168287C22.5135 0.152992 22.5347 0.138616 22.5565 0.125201C22.5667 0.118806 22.5771 0.112713 22.5877 0.106861C22.6045 0.0975377 22.6219 0.0886086 22.6396 0.0802747C22.6541 0.0734392 22.6688 0.0670255 22.6837 0.0610504C22.7005 0.0542707 22.7174 0.048105 22.7344 0.0424686C22.7471 0.0383389 22.7602 0.0343695 22.7734 0.0307244C22.7918 0.0255717 22.8103 0.0211199 22.829 0.0172845C22.8438 0.0143162 22.8586 0.0116812 22.8735 0.00944383C22.8897 0.00695334 22.9064 0.00494234 22.9233 0.00342679C22.9441 0.00159904 22.9642 0.000513753 22.9844 0.000143664C22.9891 5.16842e-05 22.9945 0 23 0Z" fill="currentColor"/>
</svg>
