<svg width="65" height="95" viewBox="0 0 65 95" fill="none" xmlns="http://www.w3.org/2000/svg">
<path d="M32.501 2.35742V41.2532H2.34229C2.34229 11.0795 15.1017 5.8934 32.501 2.35742Z" fill="#00BEBE"/>
<path fill-rule="evenodd" clip-rule="evenodd" d="M32.4811 0.00300995C32.637 0.00100673 32.7934 0 32.9503 0C43.5009 0 51.3198 4.54675 56.4813 10.302C61.5946 16.0034 64.1668 22.9691 64.1668 27.9743V67.0257C64.1668 71.6186 61.3787 78.5803 56.2125 84.3547C50.9897 90.1925 43.179 95 32.9503 95C22.7551 95 14.7286 90.4505 9.27128 84.7327C3.86739 79.0709 0.833496 72.0979 0.833496 67.0257V27.9743C0.833496 22.9666 3.62174 16.0617 8.87218 10.4054C14.1725 4.69534 22.0876 0.136588 32.4811 0.00300995ZM34.0081 3.0813V39.2071H61.151V27.9743C61.151 23.8615 58.9518 17.6062 54.2522 12.3661C49.7732 7.3719 43.0834 3.37084 34.0081 3.0813ZM61.151 42.2716H3.84937V67.0257C3.84937 71.0715 6.3971 77.3195 11.4362 82.5992C16.422 87.8229 23.6998 91.9355 32.9503 91.9355C42.1673 91.9355 49.2108 87.6251 53.9809 82.2933C58.8076 76.8983 61.151 70.639 61.151 67.0257V42.2716ZM3.84937 39.2071H30.9922V3.12237C22.2687 3.64242 15.6155 7.60709 11.0661 12.5081C6.20495 17.7451 3.84937 23.932 3.84937 27.9743V39.2071Z" fill="#444444"/>
<path d="M27.8613 27.6881V17.8098C27.8613 16.0138 29.5306 13.3197 32.502 13.3197C35.4735 13.3197 37.1409 16.0138 37.1409 17.8098V27.6881C37.1409 29.4842 36.2146 32.1783 32.502 32.1783C28.7895 32.1783 27.8631 29.4842 27.8613 27.6881Z" fill="#444444"/>
<path fill-rule="evenodd" clip-rule="evenodd" d="M27.9415 13.8698C28.9753 12.6927 30.5278 11.7863 32.5012 11.7863C34.4746 11.7863 36.0268 12.6928 37.0602 13.8701C38.0609 15.0101 38.648 16.4855 38.648 17.8086V27.6869C38.648 28.8132 38.3635 30.3065 37.3977 31.5533C36.3809 32.8658 34.7596 33.7093 32.5012 33.7093C30.2426 33.7093 28.6214 32.8658 27.6045 31.5534C26.6386 30.3069 26.3536 28.814 26.3525 27.6885L26.3525 17.8086C26.3525 16.4851 26.9404 15.0096 27.9415 13.8698ZM30.1916 15.9103C29.6151 16.5666 29.3684 17.3362 29.3684 17.8086V27.6862C29.3692 28.3565 29.5484 29.1083 29.974 29.6576C30.3489 30.1413 31.0471 30.6448 32.5012 30.6448C33.9552 30.6448 34.6534 30.1413 35.0279 29.6578C35.4534 29.1085 35.6321 28.3568 35.6321 27.6869V17.8086C35.6321 17.3357 35.3855 16.5661 34.8096 15.91C34.2664 15.2913 33.4992 14.8508 32.5012 14.8508C31.5031 14.8508 30.7352 15.2914 30.1916 15.9103Z" fill="#444444"/>
</svg>
