<svg width="24" height="24" viewBox="0 0 24 24" fill="none" xmlns="http://www.w3.org/2000/svg">
<path d="M19.711 3.36355L2.24279 8.29049C2.09583 8.33194 1.96503 8.41725 1.86786 8.53503C1.77069 8.65281 1.71178 8.79745 1.69901 8.9496C1.68624 9.10176 1.72021 9.25418 1.79639 9.38651C1.87257 9.51884 1.98733 9.62477 2.12532 9.69013L10.1513 13.4919C10.3079 13.5661 10.4339 13.6921 10.5081 13.8487L14.3099 21.8747C14.3752 22.0127 14.4812 22.1274 14.6135 22.2036C14.7458 22.2798 14.8982 22.3138 15.0504 22.301C15.2025 22.2882 15.3472 22.2293 15.465 22.1321C15.5827 22.035 15.6681 21.9042 15.7095 21.7572L20.6364 4.28898C20.6726 4.16067 20.674 4.02503 20.6403 3.89603C20.6066 3.76703 20.5392 3.64933 20.4449 3.55506C20.3507 3.46079 20.233 3.39335 20.104 3.35969C19.975 3.32603 19.8393 3.32736 19.711 3.36355Z" stroke="currentColor" stroke-width="1.5" stroke-linecap="round" stroke-linejoin="round"/>
<path d="M10.3934 13.6066L14.636 9.36395" stroke="currentColor" stroke-width="1.5" stroke-linecap="round" stroke-linejoin="round"/>
</svg>
