<svg width="16" height="17" viewBox="0 0 16 17" fill="none" xmlns="http://www.w3.org/2000/svg">
<path d="M6 14H3C2.86739 14 2.74021 13.9473 2.64645 13.8535C2.55268 13.7598 2.5 13.6326 2.5 13.5V10.7071C2.5 10.6414 2.51293 10.5764 2.53806 10.5158C2.56319 10.4551 2.60002 10.4 2.64645 10.3535L10.1464 2.85354C10.2402 2.75977 10.3674 2.70709 10.5 2.70709C10.6326 2.70709 10.7598 2.75977 10.8536 2.85354L13.6464 5.64643C13.7402 5.7402 13.7929 5.86738 13.7929 5.99999C13.7929 6.13259 13.7402 6.25977 13.6464 6.35354L6 14Z" stroke="currentColor" stroke-width="1.5" stroke-linecap="round" stroke-linejoin="round"/>
<path d="M8.5 4.5L12 8" stroke="currentColor" stroke-width="1.5" stroke-linecap="round" stroke-linejoin="round"/>
</svg>
