<svg width="16" height="17" viewBox="0 0 16 17" fill="none" xmlns="http://www.w3.org/2000/svg">
<path d="M14.2593 8.07339L5.26073 2.5741C5.18494 2.52778 5.09817 2.50248 5.00936 2.50082C4.92055 2.49916 4.8329 2.52118 4.75542 2.56463C4.67795 2.60808 4.61345 2.67139 4.56856 2.74803C4.52366 2.82468 4.5 2.91191 4.5 3.00073V13.9993C4.5 14.0881 4.52366 14.1754 4.56856 14.252C4.61345 14.3287 4.67795 14.392 4.75542 14.4354C4.8329 14.4789 4.92055 14.5009 5.00936 14.4992C5.09817 14.4976 5.18494 14.4723 5.26073 14.4259L14.2593 8.92666C14.3324 8.88199 14.3927 8.8193 14.4346 8.7446C14.4765 8.66989 14.4985 8.58567 14.4985 8.50002C14.4985 8.41437 14.4765 8.33015 14.4346 8.25545C14.3927 8.18074 14.3324 8.11805 14.2593 8.07339Z" stroke="currentColor" stroke-width="1.5" stroke-linecap="round" stroke-linejoin="round"/>
</svg>
