<svg width="20" height="21" viewBox="0 0 20 21" fill="none" xmlns="http://www.w3.org/2000/svg">
<path d="M13.5936 9.87592H10.6248V6.90717C10.6248 6.82123 10.5545 6.75092 10.4686 6.75092H9.5311C9.44516 6.75092 9.37485 6.82123 9.37485 6.90717V9.87592H6.4061C6.32016 9.87592 6.24985 9.94623 6.24985 10.0322V10.9697C6.24985 11.0556 6.32016 11.1259 6.4061 11.1259H9.37485V14.0947C9.37485 14.1806 9.44516 14.2509 9.5311 14.2509H10.4686C10.5545 14.2509 10.6248 14.1806 10.6248 14.0947V11.1259H13.5936C13.6795 11.1259 13.7499 11.0556 13.7499 10.9697V10.0322C13.7499 9.94623 13.6795 9.87592 13.5936 9.87592Z" fill="currentColor"/>
<path d="M10 1.75C5.16797 1.75 1.25 5.66797 1.25 10.5C1.25 15.332 5.16797 19.25 10 19.25C14.832 19.25 18.75 15.332 18.75 10.5C18.75 5.66797 14.832 1.75 10 1.75ZM10 17.7656C5.98828 17.7656 2.73438 14.5117 2.73438 10.5C2.73438 6.48828 5.98828 3.23438 10 3.23438C14.0117 3.23438 17.2656 6.48828 17.2656 10.5C17.2656 14.5117 14.0117 17.7656 10 17.7656Z" fill="currentColor"/>
</svg>
