<svg width="14" height="14" viewBox="0 0 14 14" fill="none" xmlns="http://www.w3.org/2000/svg">
<g clip-path="url(#clip0_4901_18880)">
<path d="M12.9581 3.58477L10.4174 1.04414C10.3002 0.926953 10.1565 0.841016 10.0002 0.794141V0.751953H1.25024C0.973682 0.751953 0.750244 0.975391 0.750244 1.25195V12.752C0.750244 13.0285 0.973682 13.252 1.25024 13.252H12.7502C13.0268 13.252 13.2502 13.0285 13.2502 12.752V4.29102C13.2502 4.02539 13.1456 3.77227 12.9581 3.58477ZM5.00024 1.87695H9.00025V3.50195H5.00024V1.87695ZM12.1252 12.127H1.87524V1.87695H4.00024V4.00195C4.00024 4.27852 4.22368 4.50195 4.50024 4.50195H9.50025C9.77681 4.50195 10.0002 4.27852 10.0002 4.00195V2.21758L12.1252 4.34258V12.127ZM7.00024 5.9082C5.75806 5.9082 4.75024 6.91602 4.75024 8.1582C4.75024 9.40039 5.75806 10.4082 7.00024 10.4082C8.24243 10.4082 9.25025 9.40039 9.25025 8.1582C9.25025 6.91602 8.24243 5.9082 7.00024 5.9082ZM7.00024 9.4082C6.30962 9.4082 5.75024 8.84883 5.75024 8.1582C5.75024 7.46758 6.30962 6.9082 7.00024 6.9082C7.69087 6.9082 8.25025 7.46758 8.25025 8.1582C8.25025 8.84883 7.69087 9.4082 7.00024 9.4082Z" fill="currentColor" fill-opacity="0.85"/>
</g>
<defs>
<clipPath id="clip0_4901_18880">
<rect width="14" height="14" fill="white"/>
</clipPath>
</defs>
</svg>
