<svg width="16" height="16" viewBox="0 0 16 16" fill="none" xmlns="http://www.w3.org/2000/svg">
<path d="M15.102 14.1183L10.4645 9.4808C11.1841 8.55045 11.5734 7.41295 11.5734 6.21652C11.5734 4.78438 11.0145 3.44152 10.0038 2.42902C8.99306 1.41652 7.64663 0.859375 6.21627 0.859375C4.78592 0.859375 3.43949 1.4183 2.42877 2.42902C1.41627 3.43973 0.859131 4.78438 0.859131 6.21652C0.859131 7.64688 1.41806 8.9933 2.42877 10.004C3.43949 11.0165 4.78413 11.5737 6.21627 11.5737C7.4127 11.5737 8.54842 11.1844 9.47877 10.4665L14.1163 15.1022C14.1299 15.1158 14.146 15.1266 14.1638 15.134C14.1816 15.1414 14.2006 15.1452 14.2198 15.1452C14.2391 15.1452 14.2581 15.1414 14.2759 15.134C14.2937 15.1266 14.3098 15.1158 14.3234 15.1022L15.102 14.3254C15.1156 14.3118 15.1264 14.2957 15.1338 14.2779C15.1411 14.2602 15.1449 14.2411 15.1449 14.2219C15.1449 14.2026 15.1411 14.1836 15.1338 14.1658C15.1264 14.148 15.1156 14.1319 15.102 14.1183ZM9.04485 9.04509C8.2877 9.80045 7.28413 10.2165 6.21627 10.2165C5.14842 10.2165 4.14485 9.80045 3.3877 9.04509C2.63235 8.28795 2.21627 7.28438 2.21627 6.21652C2.21627 5.14866 2.63235 4.1433 3.3877 3.38795C4.14485 2.63259 5.14842 2.21652 6.21627 2.21652C7.28413 2.21652 8.28949 2.6308 9.04485 3.38795C9.8002 4.14509 10.2163 5.14866 10.2163 6.21652C10.2163 7.28438 9.8002 8.28973 9.04485 9.04509Z" fill="currentColor" fill-opacity="0.45"/>
</svg>
