<svg width="32" height="32" viewBox="0 0 32 32" fill="none" xmlns="http://www.w3.org/2000/svg">
<path d="M16.0001 13.5L16.0001 27" stroke="currentColor" stroke-width="2" stroke-linecap="round" stroke-linejoin="round"/>
<path d="M16.0001 5L16.0001 8.5" stroke="currentColor" stroke-width="2" stroke-linecap="round" stroke-linejoin="round"/>
<path d="M16.0001 13.5C17.3808 13.5 18.5001 12.3807 18.5001 11C18.5001 9.61929 17.3808 8.5 16.0001 8.5C14.6194 8.5 13.5001 9.61929 13.5001 11C13.5001 12.3807 14.6194 13.5 16.0001 13.5Z" stroke="currentColor" stroke-width="2" stroke-linecap="round" stroke-linejoin="round"/>
<path d="M25.0001 23.5L25.0002 27" stroke="currentColor" stroke-width="2" stroke-linecap="round" stroke-linejoin="round"/>
<path d="M25.0002 5L25.0001 18.5" stroke="currentColor" stroke-width="2" stroke-linecap="round" stroke-linejoin="round"/>
<path d="M25.0001 23.5C26.3808 23.5 27.5001 22.3807 27.5001 21C27.5001 19.6193 26.3808 18.5 25.0001 18.5C23.6194 18.5 22.5001 19.6193 22.5001 21C22.5001 22.3807 23.6194 23.5 25.0001 23.5Z" stroke="currentColor" stroke-width="2" stroke-linecap="round" stroke-linejoin="round"/>
<path d="M7.00007 19.5L7 27" stroke="currentColor" stroke-width="2" stroke-linecap="round" stroke-linejoin="round"/>
<path d="M7 5L7.00007 14.5" stroke="currentColor" stroke-width="2" stroke-linecap="round" stroke-linejoin="round"/>
<path d="M7.00012 19.5C8.38083 19.5 9.50012 18.3807 9.50012 17C9.50012 15.6193 8.38083 14.5 7.00012 14.5C5.61941 14.5 4.50012 15.6193 4.50012 17C4.50012 18.3807 5.61941 19.5 7.00012 19.5Z" stroke="currentColor" stroke-width="2" stroke-linecap="round" stroke-linejoin="round"/>
</svg>
