<svg width="24" height="24" viewBox="0 0 24 24" fill="none" xmlns="http://www.w3.org/2000/svg">
<path d="M16.1429 5H5.85714C5.38376 5 5 5.3198 5 5.71429V9.28571C5 9.6802 5.38376 10 5.85714 10H16.1429C16.6162 10 17 9.6802 17 9.28571V5.71429C17 5.3198 16.6162 5 16.1429 5Z" stroke="currentColor" stroke-width="1.5" stroke-linecap="round" stroke-linejoin="round"/>
<path d="M20.1579 13H5.84211C5.37702 13 5 13.3838 5 13.8571V18.1429C5 18.6162 5.37702 19 5.84211 19H20.1579C20.623 19 21 18.6162 21 18.1429V13.8571C21 13.3838 20.623 13 20.1579 13Z" stroke="currentColor" stroke-width="1.5" stroke-linecap="round" stroke-linejoin="round"/>
</svg>
