<svg width="30" height="30" viewBox="0 0 30 30" fill="none" xmlns="http://www.w3.org/2000/svg">
<rect width="5" height="5" fill="#676767" />
<rect y="10" width="5" height="5" fill="#676767" />
<rect y="20" width="5" height="5" fill="#676767" />
<rect x="5.00024" y="5" width="5" height="5" fill="#676767" />
<rect x="5.00024" y="15" width="5" height="5" fill="#676767" />
<rect x="5.00024" y="25" width="5" height="5" fill="#676767" />
<rect x="5.00024" width="5" height="5" fill="#9B9B9B" />
<rect x="5.00024" y="10" width="5" height="5" fill="#9B9B9B" />
<rect x="5.00024" y="20" width="5" height="5" fill="#9B9B9B" />
<rect x="9.99976" y="5" width="5" height="5" fill="#9B9B9B" />
<rect x="9.99976" y="15" width="5" height="5" fill="#9B9B9B" />
<rect x="9.99976" y="25" width="5" height="5" fill="#9B9B9B" />
<rect x="20.0002" width="5" height="5" fill="#676767" />
<rect x="20.0002" y="10" width="5" height="5" fill="#676767" />
<rect x="20.0002" y="20" width="5" height="5" fill="#676767" />
<rect x="24.9998" y="5" width="5" height="5" fill="#676767" />
<rect x="24.9998" y="15" width="5" height="5" fill="#676767" />
<rect x="24.9998" y="25" width="5" height="5" fill="#676767" />
<rect x="9.99976" width="5" height="5" fill="#676767" />
<rect x="9.99976" y="10" width="5" height="5" fill="#676767" />
<rect x="9.99976" y="20" width="5" height="5" fill="#676767" />
<rect x="15" y="5" width="5" height="5" fill="#676767" />
<rect x="15" y="15" width="5" height="5" fill="#676767" />
<rect x="15" y="25" width="5" height="5" fill="#676767" />
<rect x="24.9998" width="5" height="5" fill="#9B9B9B" />
<rect x="24.9998" y="10" width="5" height="5" fill="#9B9B9B" />
<rect x="24.9998" y="20" width="5" height="5" fill="#9B9B9B" />
<rect y="5" width="5" height="5" fill="#9B9B9B" />
<rect y="15" width="5" height="5" fill="#9B9B9B" />
<rect y="25" width="5" height="5" fill="#9B9B9B" />
<rect x="15" width="5" height="5" fill="#9B9B9B" />
<rect x="15" y="10" width="5" height="5" fill="#9B9B9B" />
<rect x="15" y="20" width="5" height="5" fill="#9B9B9B" />
<rect x="20.0002" y="5" width="5" height="5" fill="#9B9B9B" />
<rect x="20.0002" y="15" width="5" height="5" fill="#9B9B9B" />
<rect x="20.0002" y="25" width="5" height="5" fill="#9B9B9B" />
</svg>