<svg width="16" height="21" viewBox="0 0 16 21" fill="none" xmlns="http://www.w3.org/2000/svg">
<path d="M7.99979 15L15.794 0H0.205566L7.99979 15Z" fill="white"/>
<path d="M7.99968 13L14.0619 1H1.9375L7.99968 13Z" fill="#3B3CD0"/>
<path d="M14 15C14 18.3137 11.3137 21 8 21C4.68629 21 2 18.3137 2 15C2 11.6863 4.68629 9 8 9C11.3137 9 14 11.6863 14 15Z" fill="white"/>
<path d="M13 15C13 17.7614 10.7614 20 8 20C5.23858 20 3 17.7614 3 15C3 12.2386 5.23858 10 8 10C10.7614 10 13 12.2386 13 15Z" fill="#3B3CD0"/>
<path d="M11 15C11 16.6569 9.65685 18 8 18C6.34315 18 5 16.6569 5 15C5 13.3431 6.34315 12 8 12C9.65685 12 11 13.3431 11 15Z" fill="white"/>
</svg>
