<svg width="14" height="14" viewBox="0 0 14 14" fill="none" xmlns="http://www.w3.org/2000/svg">
<g clip-path="url(#clip0_2746_12957)">
<path d="M8.50047 0.751892C5.87704 0.751892 3.75047 2.87845 3.75047 5.50189C3.75047 6.60033 4.12391 7.61127 4.74891 8.41596L4.10672 9.05814L3.13329 8.08471C3.10949 8.06142 3.07752 8.04838 3.04422 8.04838C3.01093 8.04838 2.97896 8.06142 2.95516 8.08471L2.33329 8.70658C2.31 8.73038 2.29696 8.76235 2.29696 8.79564C2.29696 8.82894 2.31 8.86091 2.33329 8.88471L3.30672 9.85814L2.60516 10.5597L1.63172 9.58627C1.60793 9.56298 1.57595 9.54994 1.54266 9.54994C1.50937 9.54994 1.47739 9.56298 1.4536 9.58627L0.831723 10.2081C0.808437 10.2319 0.795397 10.2639 0.795397 10.2972C0.795397 10.3305 0.808437 10.3625 0.831723 10.3863L1.80516 11.3597L0.784848 12.38C0.761585 12.4035 0.748535 12.4352 0.748535 12.4683C0.748535 12.5014 0.761585 12.5331 0.784848 12.5566L1.44579 13.2175C1.49422 13.266 1.57391 13.266 1.62235 13.2175L5.58485 9.25502C6.41898 9.902 7.44484 10.2527 8.50047 10.2519C11.1239 10.2519 13.2505 8.12533 13.2505 5.50189C13.2505 2.87845 11.1239 0.751892 8.50047 0.751892ZM11.0192 8.02064C10.3473 8.69408 9.45204 9.06439 8.50047 9.06439C7.54891 9.06439 6.6536 8.69408 5.98172 8.02064C5.30829 7.34877 4.93797 6.45346 4.93797 5.50189C4.93797 4.55033 5.30829 3.65502 5.98172 2.98314C6.6536 2.3097 7.54891 1.93939 8.50047 1.93939C9.45204 1.93939 10.3473 2.3097 11.0192 2.98314C11.6927 3.65502 12.063 4.55033 12.063 5.50189C12.063 6.45346 11.6927 7.34877 11.0192 8.02064Z" fill="currentColor" fill-opacity="0.85"/>
</g>
<defs>
<clipPath id="clip0_2746_12957">
<rect width="14" height="14" fill="white"/>
</clipPath>
</defs>
</svg>
