<svg width="16" height="14" viewBox="0 0 16 14" fill="none" xmlns="http://www.w3.org/2000/svg">
<path fill-rule="evenodd" clip-rule="evenodd" d="M2.00008 1.66707V12.3337H6.33342V10.6647C6.33342 10.2965 6.63189 9.99804 7.00008 9.99804C7.36827 9.99804 7.66675 10.2965 7.66675 10.6647V12.6575C7.66675 13.1604 7.27979 13.6671 6.68528 13.6671H1.64823C1.05375 13.6671 0.666748 13.1604 0.666748 12.6575V1.34326C0.666748 0.840417 1.05376 0.33374 1.64823 0.33374H6.68528C7.27979 0.33374 7.66675 0.840455 7.66675 1.34326V3.33611C7.66675 3.7043 7.36827 4.00277 7.00008 4.00277C6.63189 4.00277 6.33342 3.7043 6.33342 3.33611V1.66707H2.00008ZM9.54587 4.9359C9.28552 4.67555 8.86341 4.67555 8.60306 4.9359C8.34271 5.19625 8.34271 5.61836 8.60306 5.87871L9.05809 6.33374H5.33341C4.96522 6.33374 4.66675 6.63222 4.66675 7.00041C4.66675 7.3686 4.96522 7.66707 5.33341 7.66707H9.05388L8.60307 8.11786C8.34272 8.3782 8.3427 8.80031 8.60304 9.06066C8.86339 9.32102 9.28549 9.32104 9.54585 9.06069L10.0762 8.53039L10.0762 8.53038L11.0964 7.51015C11.2414 7.38786 11.3334 7.20488 11.3334 7.00041C11.3334 6.87782 11.3003 6.76296 11.2426 6.66428C11.2141 6.61518 11.1789 6.56893 11.1369 6.5269L10.0762 5.46624L9.54587 4.9359ZM9.66675 3.33611V1.66707H14.0001V12.3337H9.66675V10.6647C9.66675 10.2965 9.36827 9.99804 9.00008 9.99804C8.63189 9.99804 8.33342 10.2965 8.33342 10.6647V12.6575C8.33342 13.1604 8.72037 13.6671 9.31488 13.6671H14.3519C14.9465 13.6671 15.3334 13.1604 15.3334 12.6575V1.34326C15.3334 0.840455 14.9465 0.33374 14.3519 0.33374H9.31488C8.72038 0.33374 8.33342 0.840455 8.33342 1.34326V3.33611C8.33342 3.7043 8.63189 4.00277 9.00008 4.00277C9.36827 4.00277 9.66675 3.7043 9.66675 3.33611Z" fill="currentColor"/>
</svg>
