<svg width="24" height="24" viewBox="0 0 24 24" fill="none" xmlns="http://www.w3.org/2000/svg">
<path d="M11.4697 6.6968L13.3258 4.84065C13.7088 4.45731 14.1635 4.15319 14.6641 3.94565C15.1646 3.73811 15.7012 3.63123 16.243 3.6311C16.7849 3.63098 17.3215 3.73761 17.8221 3.94492C18.3228 4.15222 18.7776 4.45613 19.1608 4.83929C19.544 5.22244 19.8479 5.67734 20.0552 6.17798C20.2625 6.67862 20.3691 7.2152 20.369 7.75706C20.3689 8.29893 20.262 8.83546 20.0544 9.336C19.8469 9.83655 19.5428 10.2913 19.1594 10.6743L16.5078 13.3259C16.1248 13.709 15.67 14.0128 15.1695 14.2201C14.6691 14.4274 14.1327 14.5341 13.591 14.5341C13.0493 14.5341 12.5129 14.4274 12.0124 14.2201C11.5119 14.0128 11.0572 13.709 10.6742 13.3259" stroke="currentColor" stroke-width="1.5" stroke-linecap="round" stroke-linejoin="round"/>
<path d="M12.5303 17.3034L10.6742 19.1595C10.2912 19.5429 9.83646 19.847 9.33591 20.0545C8.83537 20.2621 8.29884 20.3689 7.75697 20.3691C7.21511 20.3692 6.67853 20.2626 6.17789 20.0553C5.67725 19.848 5.22235 19.544 4.8392 19.1609C4.45604 18.7777 4.15213 18.3228 3.94483 17.8222C3.73752 17.3216 3.63089 16.785 3.63101 16.2431C3.63114 15.7012 3.73802 15.1647 3.94556 14.6642C4.1531 14.1636 4.45722 13.7089 4.84055 13.3259L7.49221 10.6742C7.87525 10.2912 8.32998 9.98736 8.83045 9.78006C9.33092 9.57276 9.86732 9.46606 10.409 9.46606C10.9507 9.46606 11.4871 9.57276 11.9876 9.78006C12.4881 9.98736 12.9428 10.2912 13.3258 10.6742" stroke="currentColor" stroke-width="1.5" stroke-linecap="round" stroke-linejoin="round"/>
</svg>
