<svg width="24" height="24" viewBox="0 0 24 24" fill="none" xmlns="http://www.w3.org/2000/svg">
<path d="M4.49927 12.75V4.5C4.49927 4.30109 4.57828 4.11032 4.71894 3.96967C4.85959 3.82902 5.05036 3.75 5.24927 3.75H14.25L19.5 9V12.75" stroke="currentColor" stroke-width="1.5" stroke-linecap="round" stroke-linejoin="round"/>
<path d="M14.25 3.75V9H19.5007" stroke="currentColor" stroke-width="1.5" stroke-linecap="round" stroke-linejoin="round"/>
<path d="M5.456 19.92C5.33333 19.92 5.22667 19.8747 5.136 19.784C5.04533 19.6933 5 19.5867 5 19.464V18.856C5 18.7333 5.04533 18.6267 5.136 18.536C5.22667 18.4453 5.33333 18.4 5.456 18.4H6.064C6.18667 18.4 6.29333 18.4453 6.384 18.536C6.47467 18.6267 6.52 18.7333 6.52 18.856V19.464C6.52 19.5867 6.47467 19.6933 6.384 19.784C6.29333 19.8747 6.18667 19.92 6.064 19.92H5.456Z" fill="currentColor"/>
<path d="M8.27444 19.92C8.15177 19.92 8.0451 19.8747 7.95444 19.784C7.86377 19.6933 7.81844 19.5867 7.81844 19.464V14.536C7.81844 14.4133 7.86377 14.3067 7.95444 14.216C8.0451 14.1253 8.15177 14.08 8.27444 14.08H8.73044C8.8691 14.08 8.99444 14.1173 9.10644 14.192C9.21844 14.2667 9.3011 14.368 9.35444 14.496L10.5944 17.512C10.5944 17.5173 10.5971 17.52 10.6024 17.52C10.6078 17.52 10.6104 17.5173 10.6104 17.512L11.8504 14.496C11.9038 14.368 11.9864 14.2667 12.0984 14.192C12.2104 14.1173 12.3358 14.08 12.4744 14.08H12.9624C13.0851 14.08 13.1918 14.1253 13.2824 14.216C13.3731 14.3067 13.4184 14.4133 13.4184 14.536V19.464C13.4184 19.5867 13.3731 19.6933 13.2824 19.784C13.1918 19.8747 13.0851 19.92 12.9624 19.92H12.5784C12.4558 19.92 12.3491 19.8747 12.2584 19.784C12.1731 19.6933 12.1304 19.5867 12.1304 19.464V16.352C12.1304 16.3467 12.1278 16.344 12.1224 16.344C12.1118 16.344 12.1064 16.3467 12.1064 16.352L11.3384 18.168C11.2851 18.296 11.1998 18.3973 11.0824 18.472C10.9704 18.5467 10.8451 18.584 10.7064 18.584H10.4984C10.3598 18.584 10.2318 18.5467 10.1144 18.472C10.0024 18.3973 9.91977 18.296 9.86644 18.168L9.09844 16.352C9.09844 16.3467 9.0931 16.344 9.08244 16.344C9.0771 16.344 9.07444 16.3467 9.07444 16.352V19.464C9.07444 19.5867 9.0291 19.6933 8.93844 19.784C8.8531 19.8747 8.7491 19.92 8.62644 19.92H8.27444Z" fill="currentColor"/>
<path d="M15.9589 15.184V18.816C15.9589 18.864 15.9829 18.8933 16.0309 18.904C16.1376 18.9253 16.2656 18.936 16.4149 18.936C16.9536 18.936 17.3509 18.7787 17.6069 18.464C17.8683 18.1493 17.9989 17.6347 17.9989 16.92C17.9989 16.28 17.8683 15.8107 17.6069 15.512C17.3456 15.2133 16.9483 15.064 16.4149 15.064C16.2656 15.064 16.1376 15.0747 16.0309 15.096C15.9829 15.1067 15.9589 15.136 15.9589 15.184ZM15.0789 19.936C14.9509 19.9253 14.8443 19.872 14.7589 19.776C14.6736 19.6747 14.6309 19.5573 14.6309 19.424V14.576C14.6309 14.4427 14.6736 14.328 14.7589 14.232C14.8443 14.1307 14.9509 14.0747 15.0789 14.064C15.4949 14.0213 15.9056 14 16.3109 14C17.2656 14 18.0016 14.2533 18.5189 14.76C19.0363 15.2667 19.2949 15.9867 19.2949 16.92C19.2949 17.9333 19.0363 18.7013 18.5189 19.224C18.0016 19.7413 17.2656 20 16.3109 20C15.9056 20 15.4949 19.9787 15.0789 19.936Z" fill="currentColor"/>
</svg>
