<svg width="14" height="14" viewBox="0 0 14 14" fill="none" xmlns="http://www.w3.org/2000/svg">
<g clip-path="url(#clip0_2746_26169)">
<path d="M13.3384 1.32728L12.6759 0.664783C12.6509 0.639783 12.6196 0.628845 12.5868 0.628845C12.554 0.628845 12.5227 0.641345 12.4977 0.664783L11.3087 1.85385C10.7918 1.50362 10.1815 1.31689 9.55711 1.31791C8.75711 1.31791 7.95711 1.6226 7.34618 2.23353L5.75399 3.82572C5.73073 3.84921 5.71768 3.88094 5.71768 3.914C5.71768 3.94706 5.73073 3.97879 5.75399 4.00228L9.9993 8.2476C10.0243 8.2726 10.0556 8.28353 10.0884 8.28353C10.1196 8.28353 10.1524 8.27103 10.1774 8.2476L11.7696 6.65541C12.8462 5.57728 12.9727 3.9101 12.1493 2.69447L13.3384 1.50541C13.3868 1.45541 13.3868 1.37572 13.3384 1.32728ZM11.0165 5.90385L10.0884 6.83197L7.16961 3.91322L8.09774 2.9851C8.4868 2.59603 9.00555 2.38041 9.55711 2.38041C10.1087 2.38041 10.6259 2.59447 11.0165 2.9851C11.4056 3.37416 11.6212 3.89291 11.6212 4.44447C11.6212 4.99603 11.4056 5.51322 11.0165 5.90385ZM8.04461 7.54447C8.02112 7.52121 7.9894 7.50816 7.95633 7.50816C7.92327 7.50816 7.89154 7.52121 7.86805 7.54447L6.82743 8.58509L5.41649 7.17416L6.45868 6.13197C6.50711 6.08353 6.50711 6.00385 6.45868 5.95541L5.88993 5.38666C5.86643 5.36339 5.83471 5.35035 5.80165 5.35035C5.76858 5.35035 5.73686 5.36339 5.71336 5.38666L4.67118 6.42884L3.9993 5.75697C3.98764 5.7453 3.97374 5.7361 3.95843 5.72992C3.94313 5.72375 3.92674 5.72072 3.91024 5.72103C3.87899 5.72103 3.84618 5.73353 3.82118 5.75697L2.23055 7.34916C1.15399 8.42728 1.02743 10.0945 1.85086 11.3101L0.661801 12.4992C0.638538 12.5227 0.625488 12.5544 0.625488 12.5874C0.625488 12.6205 0.638538 12.6522 0.661801 12.6757L1.3243 13.3382C1.3493 13.3632 1.38055 13.3742 1.41336 13.3742C1.44618 13.3742 1.47743 13.3617 1.50243 13.3382L2.69149 12.1492C3.21805 12.507 3.83055 12.6851 4.44305 12.6851C5.24305 12.6851 6.04305 12.3804 6.65399 11.7695L8.24618 10.1773C8.29461 10.1288 8.29461 10.0492 8.24618 10.0007L7.5743 9.32885L8.61649 8.28666C8.66493 8.23822 8.66493 8.15853 8.61649 8.1101L8.04461 7.54447ZM5.90086 11.0195C5.70963 11.2117 5.48219 11.3641 5.2317 11.4679C4.98121 11.5717 4.71263 11.6248 4.44149 11.6242C3.88993 11.6242 3.37274 11.4101 2.98211 11.0195C2.7899 10.8282 2.63749 10.6008 2.5337 10.3503C2.42991 10.0998 2.37679 9.83124 2.37743 9.5601C2.37743 9.00853 2.59149 8.49134 2.98211 8.10072L3.91024 7.1726L6.82899 10.0913L5.90086 11.0195Z" fill="currentColor" fill-opacity="0.85"/>
<path d="M13.1923 10.75C13.1934 11.1862 13.0312 11.607 12.7377 11.9297C13.4048 12.3422 13.8611 13.0672 13.9048 13.9C13.9057 13.9169 13.9031 13.9339 13.8972 13.9498C13.8913 13.9657 13.8822 13.9802 13.8705 13.9925C13.8588 14.0047 13.8448 14.0145 13.8292 14.0212C13.8136 14.0278 13.7968 14.0313 13.7798 14.0313H13.0955H9.81109H9.12516C9.1082 14.0313 9.09142 14.0278 9.07583 14.0212C9.06024 14.0145 9.04618 14.0047 9.03448 13.9925C9.02279 13.9802 9.01372 13.9657 9.00782 13.9498C9.00191 13.9339 8.99931 13.9169 9.00016 13.9C9.02104 13.5019 9.13796 13.1148 9.34094 12.7717C9.54392 12.4286 9.82692 12.1397 10.1658 11.9297C9.88297 11.6172 9.71109 11.2047 9.71109 10.75C9.71109 9.78281 10.4908 9 11.4517 9C12.4127 9 13.1923 9.78281 13.1923 10.75Z" fill="currentColor" fill-opacity="0.85"/>
</g>
<defs>
<clipPath id="clip0_2746_26169">
<rect width="14" height="14" fill="white"/>
</clipPath>
</defs>
</svg>
