<svg width="24" height="24" viewBox="0 0 24 24" fill="none" xmlns="http://www.w3.org/2000/svg">
<path fill-rule="evenodd" clip-rule="evenodd" d="M11.9995 4.49954C12.4137 4.49954 12.7495 4.83533 12.7495 5.24954V18.7495C12.7495 19.1638 12.4137 19.4995 11.9995 19.4995C11.5852 19.4995 11.2495 19.1638 11.2495 18.7495V5.24954C11.2495 4.83533 11.5852 4.49954 11.9995 4.49954Z" fill="currentColor"/>
<path fill-rule="evenodd" clip-rule="evenodd" d="M3.74945 5.24954C3.74945 4.83533 4.08524 4.49954 4.49945 4.49954H19.4995C19.9137 4.49954 20.2495 4.83533 20.2495 5.24954V8.24954C20.2495 8.66376 19.9137 8.99954 19.4995 8.99954C19.0852 8.99954 18.7495 8.66376 18.7495 8.24954V5.99954H5.24945V8.24954C5.24945 8.66376 4.91366 8.99954 4.49945 8.99954C4.08524 8.99954 3.74945 8.66376 3.74945 8.24954V5.24954Z" fill="currentColor"/>
<path fill-rule="evenodd" clip-rule="evenodd" d="M8.24945 18.7495C8.24945 18.3353 8.58524 17.9995 8.99945 17.9995H14.9995C15.4137 17.9995 15.7495 18.3353 15.7495 18.7495C15.7495 19.1638 15.4137 19.4995 14.9995 19.4995H8.99945C8.58524 19.4995 8.24945 19.1638 8.24945 18.7495Z" fill="currentColor"/>
</svg>
